#!OML:ASF F:\VICON\USERDATA\INSTALL\Justin_Nancy\Justin_Nancy.ASF
:FULLY-SPECIFIED
:DEGREES
254
root 0.482673 17.5043 -2.07904 1.18089 0.712168 -0.581982
lowerback 1.5227 0.0691078 -0.294257
upperback -1.42622 0.140599 2.62654
thorax -2.32544 0.0987368 2.86047
lowerneck -14.8245 -6.87575 -11.3039
upperneck 19.5796 -8.46636 7.33969
head 9.42811 -4.04689 3.29642
rclavicle 8.07563e-016 1.27222e-014
rhumerus -32.5868 -27.1874 -74.0996
rradius 20.4941
rwrist 20.6129
rhand -16.3381 13.4154
rfingers 7.12502
rthumb 9.87401 -16.3331
lclavicle 8.07563e-016 1.27222e-014
lhumerus -29.6486 7.11114 87.249
lradius 30.7955
lwrist -3.96714
lhand -11.0295 35.508
lfingers 7.12502
lthumb 14.992 64.9453
rfemur -9.28522 6.14165 25.5365
rtibia 29.3741
rfoot -15.9282 -8.60583
rtoes 2.73051
lfemur -11.737 -3.38783 -21.732
ltibia 31.88
lfoot -17.4033 6.45822
ltoes 4.51213
255
root 0.487265 17.5045 -2.06877 1.13977 0.78723 -0.552367
lowerback 1.50986 0.0189643 -0.2538
upperback -1.33431 0.0719086 2.59534
thorax -2.21988 0.0619794 2.80739
lowerneck -14.8889 -6.89298 -11.2978
upperneck 19.4034 -8.48707 7.39758
head 9.38307 -4.04784 3.31006
rclavicle 1.21631e-014 2.38542e-015
rhumerus -32.991 -27.7994 -73.607
rradius 20.0836
rwrist 21.2631
rhand -16.6636 14.3057
rfingers 7.12502
rthumb 9.55991 -15.4574
lclavicle 1.21631e-014 2.38542e-015
lhumerus -29.4642 6.75605 87.358
lradius 30.973
lwrist -3.53931
lhand -12.5212 33.0036
lfingers 7.12502
lthumb 13.5547 62.5424
rfemur -9.18626 6.04302 25.4901
rtibia 29.3659
rfoot -15.9107 -8.62239
rtoes 2.52337
lfemur -11.6547 -3.44126 -21.7901
ltibia 31.8906
lfoot -17.4524 6.44153
ltoes 4.74831
256
root 0.48997 17.5041 -2.06126 1.18543 0.874165 -0.594488
lowerback 1.52517 -0.036591 -0.175921
upperback -1.33305 0.000229135 2.61288
thorax -2.22352 0.0250768 2.7841
lowerneck -14.7757 -6.91006 -11.4603
upperneck 19.168 -8.51268 7.5835
head 9.29972 -4.05454 3.39901
rclavicle -1.13928e-014 3.97569e-015
rhumerus -33.4059 -28.1962 -73.1731
rradius 19.6867
rwrist 21.443
rhand -16.6325 14.1996
rfingers 7.12502
rthumb 9.58995 -15.5622
lclavicle -1.13928e-014 3.97569e-015
lhumerus -29.2704 6.51865 87.4396
lradius 30.966
lwrist -3.392
lhand -13.652 30.5728
lfingers 7.12502
lthumb 12.4647 60.1811
rfemur -9.22003 6.04411 25.5388
rtibia 29.3881
rfoot -15.9111 -8.75316
rtoes 2.25704
lfemur -11.7039 -3.40879 -21.7344
ltibia 31.8997
lfoot -17.54 6.31996
ltoes 4.92512
257
root 0.490657 17.5021 -2.04992 1.28308 0.988811 -0.451615
lowerback 1.39142 -0.104149 -0.336137
upperback -1.34088 -0.096204 2.57142
thorax -2.15135 -0.0214493 2.83426
lowerneck -14.5925 -6.86794 -11.5477
upperneck 18.9624 -8.49641 7.82491
head 9.2084 -4.03275 3.5031
rclavicle 3.26752e-015 7.95139e-016
rhumerus -33.9855 -28.5206 -72.7885
rradius 19.4998
rwrist 21.4224
rhand -16.4835 13.2216
rfingers 7.12502
rthumb 9.7337 -16.5335
lclavicle 3.26752e-015 7.95139e-016
lhumerus -29.1031 6.45437 87.4316
lradius 30.9507
lwrist -3.67223
lhand -13.9274 29.464
lfingers 7.12502
lthumb 12.1991 59.0882
rfemur -9.2859 6.08026 25.3735
rtibia 29.4208
rfoot -15.9803 -8.8455
rtoes 2.74399
lfemur -11.7907 -3.35196 -21.8819
ltibia 31.9146
lfoot -17.6238 6.16995
ltoes 4.54796
258
root 0.492763 17.4989 -2.03747 1.27885 1.11629 -0.415651
lowerback 1.33349 -0.185612 -0.417987
upperback -1.32172 -0.207457 2.59451
thorax -2.09301 -0.0762489 2.90732
lowerneck -14.6006 -6.78828 -11.4835
upperneck 18.9069 -8.39186 7.80722
head 9.17546 -3.98084 3.50098
rclavicle 4.47266e-015 -1.51076e-014
rhumerus -34.6059 -28.3657 -72.5794
rradius 19.7431
rwrist 21.3635
rhand -16.1724 13.2113
rfingers 7.12502
rthumb 10.0339 -16.5295
lclavicle 4.47266e-015 -1.51076e-014
lhumerus -29.0315 6.36924 87.5145
lradius 31.1569
lwrist -3.80192
lhand -14.4398 29.5349
lfingers 7.12502
lthumb 11.705 59.1879
rfemur -9.21751 6.00796 25.3423
rtibia 29.4358
rfoot -16.0656 -8.88847
rtoes 2.88462
lfemur -11.7374 -3.35602 -21.9224
ltibia 31.9531
lfoot -17.7555 6.01926
ltoes 4.51863
259
root 0.491117 17.4981 -2.0267 1.30045 1.12313 -0.43931
lowerback 1.3167 -0.226596 -0.502269
upperback -1.34096 -0.262653 2.66116
thorax -2.09988 -0.101811 3.02547
lowerneck -14.7402 -6.6978 -11.361
upperneck 19.1143 -8.26412 7.68603
head 9.24775 -3.92195 3.45532
rclavicle 9.44227e-016 -4.77083e-015
rhumerus -35.1522 -28.0053 -72.4357
rradius 20.0935
rwrist 21.4487
rhand -16.2814 14.7987
rfingers 7.12502
rthumb 9.92871 -14.9472
lclavicle 9.44227e-016 -4.77083e-015
lhumerus -29.1013 6.24897 87.5983
lradius 31.5441
lwrist -3.94174
lhand -14.4996 29.8797
lfingers 7.12502
lthumb 11.6473 59.536
rfemur -9.19707 6.14468 25.3946
rtibia 29.4293
rfoot -16.0705 -8.98935
rtoes 3.00489
lfemur -11.7446 -3.42867 -21.8932
ltibia 31.9919
lfoot -17.7468 6.07486
ltoes 4.60313
260
root 0.491659 17.4965 -2.01453 1.34723 1.16855 -0.573325
lowerback 1.37568 -0.284406 -0.403121
upperback -1.40815 -0.334341 2.72138
thorax -2.19838 -0.137281 3.03504
lowerneck -14.7089 -6.62014 -11.3548
upperneck 19.153 -8.19308 7.81594
head 9.25307 -3.87618 3.51107
rclavicle 1.11444e-014 -6.36111e-015
rhumerus -35.6314 -27.7087 -72.2986
rradius 20.2088
rwrist 21.3702
rhand -16.6309 15.715
rfingers 7.12502
rthumb 9.59149 -14.0467
lclavicle 1.11444e-014 -6.36111e-015
lhumerus -29.1008 6.09917 87.6103
lradius 31.6736
lwrist -4.08158
lhand -13.9787 29.4853
lfingers 7.12502
lthumb 12.1497 59.1125
rfemur -9.19382 6.27081 25.559
rtibia 29.3858
rfoot -16.0943 -9.15288
rtoes 3.09135
lfemur -11.8071 -3.62833 -21.7535
ltibia 32.0421
lfoot -17.7138 6.18835
ltoes 4.70621
261
root 0.49166 17.4953 -1.99971 1.2796 1.27105 -0.605494
lowerback 1.5103 -0.360793 -0.396543
upperback -1.46333 -0.433252 2.73562
thorax -2.32536 -0.185152 3.05107
lowerneck -14.5605 -6.5887 -11.3581
upperneck 19.1014 -8.18378 7.90852
head 9.21107 -3.86646 3.54836
rclavicle 4.08751e-015 3.97569e-015
rhumerus -36.2099 -27.1542 -72.2958
rradius 20.4949
rwrist 20.7971
rhand -16.9462 16.02
rfingers 7.12502
rthumb 9.28722 -13.7554
lclavicle 4.08751e-015 3.97569e-015
lhumerus -29.178 6.01412 87.5901
lradius 31.6622
lwrist -4.63963
lhand -13.6445 29.2711
lfingers 7.12502
lthumb 12.4719 58.8789
rfemur -9.0174 6.33518 25.6314
rtibia 29.3413
rfoot -16.1903 -9.31866
rtoes 3.49165
lfemur -11.72 -3.66265 -21.7255
ltibia 32.0605
lfoot -17.6637 6.18217
ltoes 4.73692
262
root 0.490782 17.4956 -1.98786 1.19489 1.34673 -0.606182
lowerback 1.57883 -0.440836 -0.471146
upperback -1.46387 -0.540642 2.77183
thorax -2.35759 -0.236961 3.1351
lowerneck -14.2746 -6.57022 -11.33
upperneck 18.7804 -8.17151 7.88337
head 9.0444 -3.86771 3.5408
rclavicle -8.08805e-015 -4.77083e-015
rhumerus -36.6944 -26.2628 -72.5333
rradius 21.0418
rwrist 19.7907
rhand -16.799 16.0747
rfingers 7.12502
rthumb 9.42928 -13.6944
lclavicle -8.08805e-015 -4.77083e-015
lhumerus -29.2125 5.77727 87.6526
lradius 31.6335
lwrist -5.46307
lhand -13.8401 29.9144
lfingers 7.12502
lthumb 12.2833 59.5337
rfemur -8.84707 6.30584 25.6741
rtibia 29.3043
rfoot -16.1768 -9.4845
rtoes 2.95753
lfemur -11.599 -3.63922 -21.714
ltibia 32.0603
lfoot -17.7558 6.06162
ltoes 5.20135
263
root 0.492557 17.4963 -1.97527 1.24604 1.57105 -0.401883
lowerback 1.35938 -0.554507 -0.654696
upperback -1.36384 -0.702246 2.7189
thorax -2.12029 -0.318472 3.18527
lowerneck -14.3031 -6.61682 -11.2992
upperneck 18.6327 -8.22306 7.84728
head 9.00146 -3.89204 3.51426
rclavicle 4.5472e-015 -4.77083e-015
rhumerus -36.8596 -25.8241 -72.7207
rradius 21.3256
rwrist 19.2591
rhand -16.5906 16.0983
rfingers 7.12502
rthumb 9.63039 -13.6615
lclavicle 4.5472e-015 -4.77083e-015
lhumerus -28.8996 5.49866 87.7583
lradius 31.5403
lwrist -5.73793
lhand -14.2471 29.7821
lfingers 7.12502
lthumb 11.8908 59.4245
rfemur -8.84337 6.18862 25.4488
rtibia 29.339
rfoot -16.2138 -9.59988
rtoes 2.87922
lfemur -11.5933 -3.65371 -21.9253
ltibia 32.0215
lfoot -17.8532 5.80496
ltoes 5.53358
264
root 0.493628 17.4949 -1.96395 1.23355 1.69045 -0.371112
lowerback 1.19301 -0.656512 -0.709551
upperback -1.23648 -0.842934 2.74924
thorax -1.88616 -0.391429 3.24768
lowerneck -14.4548 -6.66467 -11.424
upperneck 18.7353 -8.26224 7.90477
head 9.07708 -3.9098 3.54612
rclavicle 1.28092e-014 -1.59028e-014
rhumerus -36.9982 -25.4221 -72.7908
rradius 21.5531
rwrist 18.7693
rhand -16.4152 16.2471
rfingers 7.12502
rthumb 9.7996 -13.5049
lclavicle 1.28092e-014 -1.59028e-014
lhumerus -28.5052 5.51837 87.8019
lradius 31.3788
lwrist -5.8716
lhand -14.1577 29.718
lfingers 7.12502
lthumb 11.977 59.3554
rfemur -8.79601 6.21839 25.4228
rtibia 29.3942
rfoot -16.3213 -9.70411
rtoes 3.10747
lfemur -11.5418 -3.66071 -21.96
ltibia 32.0011
lfoot -17.8237 5.62224
ltoes 5.5613
265
root 0.495337 17.4929 -1.95479 1.34292 1.62191 -0.297863
lowerback 1.04151 -0.684623 -0.80557
upperback -1.18447 -0.884353 2.75815
thorax -1.74351 -0.412873 3.30913
lowerneck -14.6253 -6.7039 -11.4145
upperneck 18.7425 -8.29504 7.88241
head 9.11284 -3.92231 3.52816
rclavicle -1.06536e-014 -5.56597e-015
rhumerus -37.2829 -24.8253 -72.9579
rradius 22.0541
rwrist 18.0208
rhand -16.285 15.9507
rfingers 7.12502
rthumb 9.92525 -13.7953
lclavicle -1.06536e-014 -5.56597e-015
lhumerus -28.3411 5.66409 87.7412
lradius 31.3834
lwrist -6.39893
lhand -13.0363 30.0348
lfingers 7.12502
lthumb 13.0582 59.606
rfemur -8.93826 6.27223 25.3217
rtibia 29.4935
rfoot -16.4174 -9.67785
rtoes 3.09292
lfemur -11.5964 -3.63821 -22.0585
ltibia 31.9495
lfoot -17.7926 5.72834
ltoes 5.03776
